<svg width="100" height="100" viewBox="0 0 100 100" fill="none" xmlns="http://www.w3.org/2000/svg">
<path d="M50 0C22.5372 0 0 22.5372 0 50C0 73.4352 16.4444 94.7235 38.2812 100V83.4579C36.1176 83.9317 34.1263 83.9455 31.9237 83.2962C28.9688 82.4242 26.5678 80.4558 24.7856 77.4544C23.6496 75.5379 21.6362 73.4596 19.5358 73.6122L19.0208 67.7757C23.5626 67.3866 27.4918 70.5429 29.8241 74.4614C30.8601 76.2039 32.0526 77.2255 33.5831 77.6772C35.0624 78.1128 36.6508 77.9037 38.5017 77.2499C38.9664 73.5443 40.6639 72.1573 41.9464 70.2042V70.2011C28.923 68.2587 23.7328 61.3495 21.6728 55.896C18.943 48.6549 20.4079 39.6088 25.235 33.8921C25.3288 33.7807 25.4982 33.4892 25.4326 33.2855C23.2193 26.5999 25.9163 21.0693 26.0155 20.4826C28.5698 21.2379 28.9848 19.7227 37.1109 24.6597L38.5155 25.5035C39.1029 25.8537 38.9183 25.6538 39.5058 25.6096C42.8986 24.688 46.4752 24.1791 49.9992 24.1333C53.55 24.1791 57.1037 24.688 60.6369 25.647L61.0916 25.6927C61.0519 25.6866 61.2152 25.6638 61.4891 25.5005C71.64 19.352 71.2753 21.3615 73.9975 20.4765C74.0959 21.064 76.757 26.6846 74.5674 33.2855C74.2722 34.1949 83.3679 42.524 78.3264 55.8937C76.2665 61.3495 71.077 68.2587 58.0536 70.2011V70.2042C59.7229 72.7486 61.7287 74.102 61.718 79.351V100C83.5556 94.7235 99.9992 73.4352 99.9992 50C100 22.5372 77.4628 0 50 0V0Z" fill="white"/>
</svg>
