<svg width="100" height="100" viewBox="0 0 100 100" fill="none" xmlns="http://www.w3.org/2000/svg">
<path d="M50 100C77.6142 100 100 77.6142 100 50C100 22.3858 77.6142 0 50 0C22.3858 0 0 22.3858 0 50C0 77.6142 22.3858 100 50 100Z" fill="white"/>
<path d="M22.8794 48.9166L71.0877 30.3291C73.3253 29.5207 75.2794 30.8749 74.5544 34.2582L74.5586 34.2541L66.3502 72.9249C65.7419 75.6666 64.1127 76.3332 61.8336 75.0416L49.3336 65.8291L43.3044 71.6374C42.6377 72.3041 42.0752 72.8666 40.7836 72.8666L41.6711 60.1457L64.8377 39.2166C65.8461 38.3291 64.6127 37.8291 63.2836 38.7124L34.6544 56.7374L22.3127 52.8874C19.6336 52.0374 19.5752 50.2082 22.8794 48.9166Z" fill="#242930"/>
</svg>
