<svg width="100" height="100" viewBox="0 0 100 100" fill="none" xmlns="http://www.w3.org/2000/svg">
<path fill-rule="evenodd" clip-rule="evenodd" d="M50 100C77.6142 100 100 77.6142 100 50C100 22.3858 77.6142 0 50 0C22.3858 0 0 22.3858 0 50C0 77.6142 22.3858 100 50 100ZM72.8726 38.7917C74.4737 38.6155 75.9947 38.3507 77.4014 37.8811C78.3665 37.5591 79.1353 38.7174 78.4291 39.4347C77.1474 40.7378 75.5375 41.6608 73.7293 42.2219L73.7293 42.2222C73.7625 42.4793 73.7957 42.7364 73.8094 42.9982C73.8192 43.1792 73.8192 43.3602 73.8192 43.5412C73.8192 43.7222 73.8192 43.9032 73.8094 44.0842C73.5163 60.1444 60.0745 73.0707 43.5359 73.0707C35 73.0707 27.6441 70.1778 27.6441 70.1778L27.6461 70.1616C27.2358 70.0492 26.929 69.6967 26.929 69.2605C26.929 68.7346 27.3667 68.3079 27.9059 68.3079H28.8828C33.8561 68.3079 38.4816 66.8962 42.3989 64.4881C38.3341 64.5014 34.5399 62.3934 32.9017 59.2338C32.5685 58.5917 33.0287 57.8297 33.7672 57.8297H34.744C36.2875 57.8297 37.7431 57.4772 39.0316 56.8581C36.6187 56.7152 34.45 55.7245 32.8284 54.1814C31.3191 52.7639 30.1898 50.5368 29.8694 48.4212C29.7688 47.7563 30.4204 47.2133 31.0876 47.3829C31.4238 47.4681 31.718 47.5919 32.0254 47.7213C32.6872 47.9998 33.41 48.304 34.744 48.304C34.9492 48.304 35.1446 48.2945 35.3399 48.285C33.2592 47.2943 31.5985 45.6083 30.6802 43.5412C30.1918 42.4743 29.9085 41.2932 29.8694 40.0548C29.8597 39.95 29.8597 39.8453 29.8597 39.7309C29.8597 37.9638 30.3245 36.8293 30.7403 35.8144C30.7728 35.7352 30.8049 35.6567 30.8365 35.5787C31.1198 34.8786 32.0752 34.749 32.5324 35.3558C36.6499 40.8245 43.8876 45.172 52.5223 45.4225C52.408 44.81 52.3279 44.1861 52.3279 43.5412C52.3279 41.6647 52.8358 39.9024 53.7248 38.3783C55.5613 35.2063 59.0585 33.063 63.0735 33.063C65.8371 33.063 68.3477 34.0851 70.2516 35.754C72.1985 35.4311 73.7439 34.87 75.3441 34.1146C76.2438 33.6898 77.1493 34.7233 76.5652 35.5139C75.5443 36.8961 74.4522 38.0249 72.8726 38.7917Z" fill="rgb(255, 218, 70)"/>
</svg>
