<svg width="851" height="81" viewBox="0 0 851 81" fill="none" xmlns="http://www.w3.org/2000/svg">
<path fill-rule="evenodd" clip-rule="evenodd" d="M517.935 0.911744C517.195 1.40035 510.983 1.70392 504.131 1.58661C493.709 1.40761 491.429 1.70271 490.169 3.39228C488.771 5.26568 488.712 5.26205 489.352 3.33181C489.962 1.49832 489.215 1.28546 483.004 1.51767C479.133 1.66401 475.964 2.11513 475.963 2.52149C475.962 2.92907 474.584 2.98591 472.9 2.64848C470.689 2.20583 470.083 2.4453 470.711 3.51081C471.334 4.56543 470.88 4.52914 469.115 3.38382C467.028 2.02926 466.478 2.06191 465.546 3.59667C464.814 4.80247 464.437 4.90406 464.425 3.89903C464.403 2.0353 448.745 1.75351 447.657 3.59667C447.264 4.26186 447.494 4.8061 448.166 4.8061C448.839 4.8061 449.39 5.35034 449.39 6.01553C449.39 8.26748 446.867 7.24189 446.242 4.73596C445.672 2.45981 444.97 2.29896 437.974 2.85167C433.769 3.18426 429.695 3.48783 428.92 3.52653C428.069 3.56886 427.812 4.43239 428.271 5.71317C428.934 7.56601 428.786 7.62285 427.078 6.17033C426.006 5.25721 425.13 4.91495 425.13 5.41081C425.13 5.90668 424.48 5.81718 423.685 5.21368C421.502 3.55435 410.452 4.21469 408.227 6.13889C406.718 7.44265 406.159 7.48498 405.787 6.32756C405.48 5.37332 404.601 5.18102 403.375 5.79904C402.315 6.33481 399.205 6.66257 396.464 6.52712C392.712 6.34086 390.933 6.8972 389.257 8.78028C388.032 10.1566 386.678 10.9137 386.248 10.4626C385.818 10.0127 386.103 9.64381 386.882 9.64381C387.66 9.64381 387.977 9.09957 387.584 8.43438C387.191 7.7692 384.598 7.22495 381.82 7.22495C377.501 7.22495 376.697 7.61923 376.269 9.94617L375.768 12.6674L375.611 9.94617C375.442 7.02661 373.659 6.24895 372.837 8.73674C372.062 11.0879 374.385 15.5047 376.468 15.6365C383.693 16.0949 390.485 15.9727 393.938 15.3209C396.162 14.9024 400.97 14.4489 404.624 14.3134C410.814 14.0848 411.798 13.4922 411.387 10.2485C411.302 9.58334 411.948 9.99212 412.822 11.1556C414.831 13.8333 417.974 13.8599 420.756 11.2233C422.358 9.70549 422.753 9.62688 422.278 10.921C421.782 12.2804 422.908 12.723 427.353 12.9189C432.419 13.1415 433.126 12.8669 433.573 10.5001L434.078 7.82967L434.917 10.4698C435.701 12.9371 436.331 13.0774 444.594 12.6202C449.456 12.3517 456.683 12.0433 460.654 11.9345C464.625 11.8256 467.874 11.2463 467.874 10.6476C467.874 10.049 468.956 10.1651 470.28 10.9077C472.16 11.9599 473.109 11.8559 474.614 10.4299C476.008 9.10924 477.105 8.93629 478.586 9.80466C481.32 11.4059 494.159 12.3142 494.958 10.9633C495.306 10.3719 497.421 10.3283 499.698 10.8665C501.958 11.3999 506.51 11.4797 509.813 11.0431C513.115 10.6053 519.107 10.5231 523.129 10.8581C527.151 11.1931 530.632 11.2681 530.864 11.025C531.096 10.7807 541.192 10.5884 553.299 10.5956C572.98 10.6077 575.314 10.3985 575.329 8.61458C575.344 6.99395 575.539 6.9359 576.367 8.30497C576.964 9.29308 578.392 9.71516 579.815 9.32573C581.151 8.96048 582.244 9.11045 582.244 9.66074C582.244 10.211 585.883 10.569 590.329 10.4553C594.805 10.3404 598.424 9.70791 598.434 9.03909C598.445 8.37391 598.856 8.49485 599.349 9.30638C599.993 10.3683 603.969 10.6742 613.483 10.3937C620.764 10.1796 627.241 9.85788 627.876 9.68009C628.511 9.5023 629.291 9.489 629.609 9.65106C631.891 10.8085 645.388 11.2269 654.736 10.4299C658.072 10.1457 660.801 10.2606 660.801 10.6851C660.801 11.1108 661.971 11.5716 663.4 11.7107C672.956 12.6383 677.74 12.6238 678.996 11.6623C679.92 10.9548 680.44 11.0455 680.44 11.9151C680.44 13.8296 687.977 13.6095 689.531 11.649C690.238 10.7565 690.549 9.7454 690.221 9.40192C689.894 9.05965 690.419 8.0909 691.387 7.24914C692.831 5.99376 693.148 6.04576 693.148 7.53336C693.148 8.53114 692.374 10.0199 691.427 10.8424C688.558 13.335 690.415 14.1852 698.914 14.2699C703.376 14.3134 707.547 14.6859 708.182 15.0971C708.817 15.5083 709.655 14.9774 710.043 13.9179C710.68 12.1824 710.891 12.1945 712.182 14.0413C713.515 15.9498 713.71 15.9316 715.02 13.7752C716.173 11.8764 716.314 11.8401 715.799 13.5744C715.397 14.9278 715.781 15.6909 716.866 15.6909C717.8 15.6909 718.579 14.7391 718.6 13.5744C718.632 11.7131 718.806 11.6793 720.044 13.2914C721.017 14.5589 723.235 15.0512 727.228 14.8843C730.404 14.7524 735.504 15.2628 738.558 16.0187C742.907 17.0951 744.627 17.0576 746.477 15.8482C747.778 14.9979 748.497 14.8879 748.075 15.6014C747.641 16.3356 748.216 16.9403 749.398 16.9935C750.547 17.0443 752.528 17.343 753.798 17.6587C755.847 18.1654 765.932 18.3323 768.022 17.8933C768.458 17.8014 769.734 18.1461 770.856 18.6589C771.977 19.1717 773.926 19.3095 775.188 18.9637C776.449 18.619 777.481 18.758 777.481 19.2721C777.481 19.7873 779.691 20.2154 782.391 20.2239C787.079 20.2396 791.856 20.8733 802.538 22.8991C805.578 23.476 807.835 23.3406 808.603 22.5363C809.466 21.6329 809.828 21.6837 809.828 22.7056C809.828 24.6262 812.939 24.5766 813.684 22.6451C814.15 21.4357 814.285 21.4357 814.358 22.6451C814.487 24.7895 819.07 24.5319 819.07 22.3803C819.07 21.3329 819.752 20.8782 820.73 21.2712C821.643 21.6377 822.128 22.6548 821.807 23.5292C821.408 24.6153 822.172 25.064 824.208 24.9406C826.726 24.7895 826.914 24.5476 825.409 23.3926C823.802 22.1614 823.806 21.9509 825.45 21.2906C826.505 20.8661 826.979 21.062 826.571 21.7514C826.183 22.4093 826.416 22.9475 827.089 22.9475C827.761 22.9475 828.312 23.7639 828.312 24.7616C828.312 26.6967 829.687 27.1527 831.089 25.6844C832.517 24.1896 835.74 24.6576 837.228 26.5758C838.479 28.1879 838.642 28.1879 838.691 26.5758C838.724 25.4305 839.057 25.2382 839.593 26.0545C840.513 27.455 850.291 31.7872 850.957 31.0894C851.181 30.8547 850.504 29.378 849.453 27.807C847.66 25.1281 847.496 25.093 846.775 27.2422C846.065 29.3635 845.787 29.2849 843.058 26.2021C841.248 24.1569 838.723 22.7685 836.523 22.6064C834.551 22.4613 832.936 21.98 832.935 21.5361C832.927 18.8633 811.875 13.9179 808.499 15.7962C807.177 16.5315 806.392 16.3078 805.936 15.0645C805.525 13.9409 803.731 13.2721 801.131 13.2721C798.121 13.2721 797.222 13.6869 797.851 14.7839C798.392 15.726 797.948 15.6414 796.674 14.5577C795.549 13.6011 793.217 12.7496 791.489 12.665C789.763 12.5803 787.706 12.0941 786.918 11.5849C786.13 11.0746 781.475 10.4505 776.573 10.1977C771.672 9.94375 767.661 9.66558 767.661 9.57729C767.661 8.60854 758.199 9.10199 757.57 10.1034C756.972 11.06 756.717 11.0141 756.704 9.94617C756.695 9.11529 756.135 8.43438 755.463 8.43438C754.791 8.43438 754.594 9.03547 755.028 9.76959C755.461 10.5037 754.582 10.2957 753.074 9.3088C749.832 7.18504 735.892 5.48822 735.892 7.2177C735.892 7.8986 734.659 7.79459 732.921 6.96493C730.515 5.81839 729.753 5.88007 728.913 7.29389C728.05 8.74641 727.471 8.77665 725.467 7.47531C723.07 5.91998 717.328 5.04073 704.123 4.20744C700.31 3.96676 697.191 3.69343 697.191 3.60151C697.191 3.50839 695.025 3.33302 692.378 3.21207C688.597 3.03913 687.827 3.32213 688.787 4.53156C689.714 5.69987 689.551 5.88733 688.112 5.30922C687.07 4.88955 686.216 4.03328 686.216 3.40558C686.216 2.77668 683.487 2.32677 680.151 2.40539C674.985 2.52754 653.348 1.69908 641.717 0.933516C639.799 0.807736 637.303 1.07744 636.17 1.53218C634.931 2.02926 634.392 1.88291 634.816 1.16451C635.809 -0.519008 633.82 -0.327916 632.15 1.41971C631.073 2.5481 630.456 2.5481 629.378 1.41971C627.665 -0.373874 622.677 -0.499658 622.677 1.24917C622.677 1.95306 622.059 2.13085 621.305 1.64224C619.689 0.596084 590.249 0.0554734 590.843 1.08228C591.065 1.46808 589.872 2.83352 588.19 4.11794L585.132 6.45455L587.333 3.81558C589.53 1.18266 589.527 1.17782 586.177 1.06534C584.331 1.00245 580.872 0.812572 578.489 0.642043C575.938 0.460629 574.15 0.880302 574.14 1.6628C574.129 2.41386 573.697 2.2917 573.146 1.381C572.187 -0.203347 566.493 0.0143533 563.83 1.73658C563.157 2.17318 562.604 2.08973 562.604 1.55153C562.604 0.0373279 541.379 0.718239 540.891 2.24937C540.61 3.13226 539.42 2.98954 537.244 1.81277C535.469 0.851276 533.715 0.379599 533.348 0.764197C532.523 1.62894 524.018 1.56604 521.286 0.675907C520.185 0.316707 518.676 0.423136 517.935 0.911744ZM419.931 7.22495C420.324 7.89014 420.125 8.43438 419.49 8.43438C418.854 8.43438 418.013 7.89014 417.62 7.22495C417.228 6.55977 417.426 6.01553 418.062 6.01553C418.697 6.01553 419.538 6.55977 419.931 7.22495ZM355.409 9.04756C353.748 9.94979 352.128 10.2497 351.812 9.71274C351.027 8.38358 345.302 8.45373 342.818 9.82401C341.471 10.5666 340.796 10.4928 340.796 9.6051C340.796 8.87098 339.886 8.56379 338.775 8.92057C337.663 9.27735 334.859 9.6934 332.544 9.84457C329.731 10.0296 328.519 10.621 328.889 11.6285C329.232 12.567 328.53 13.0653 327.033 12.9468C325.708 12.8427 324.623 12.1473 324.623 11.4023C324.623 9.68856 320.395 9.95826 318.651 11.7833C317.795 12.6795 316.645 12.7702 315.346 12.0433C314.116 11.3539 309.438 11.4132 303.104 12.1981C297.466 12.896 289.474 13.5926 285.344 13.745C281.214 13.8974 276.768 14.6327 275.462 15.3777C274.157 16.1215 272.416 16.2957 271.592 15.7623C270.767 15.2289 268.197 15.2205 265.878 15.7417C263.559 16.263 257.686 16.9427 252.827 17.2511C247.968 17.5607 243.384 18.2078 242.639 18.6891C241.895 19.1705 238.073 19.7897 234.145 20.063C223.374 20.8141 218.341 21.4248 212.004 22.7479C208.838 23.4095 205.849 23.6925 205.362 23.3781C204.875 23.0624 204.477 23.3224 204.477 23.9562C204.477 24.5899 203.67 25.4317 202.684 25.8284C201.697 26.2238 201.157 26.0981 201.481 25.549C202.152 24.4109 195.928 24.6891 192.137 25.965C190.403 26.5492 189.843 27.4369 190.34 28.812C190.968 30.5488 190.793 30.5294 188.998 28.6657C187.382 26.9906 185.758 26.6701 181.553 27.1998C178.593 27.5723 174.59 28.0283 172.655 28.2121C170.72 28.396 168.641 28.8531 168.034 29.2293C167.428 29.6054 165.501 29.7433 163.754 29.5365C162.007 29.3296 160.577 29.6598 160.577 30.2718C160.577 30.8838 159.667 31.3046 158.556 31.2079C154.191 30.8245 152.355 31.4159 153.222 32.9253C153.811 33.9521 153.463 33.9049 152.135 32.7777C150.922 31.7473 150.18 31.6179 150.18 32.4367C150.18 33.1623 149.453 33.4647 148.564 33.1067C147.675 32.7499 146.6 33.0486 146.174 33.7695C145.747 34.4915 144.977 34.8071 144.459 34.4733C142.997 33.5264 124.679 36.2089 121.978 37.7654C120.652 38.5298 118.307 39.2397 116.767 39.3413C115.227 39.4441 113.017 40.7563 111.857 42.2572C109.926 44.7523 109.172 44.6059 109.662 41.8327C109.922 40.3548 98.94 41.7674 98.4605 43.2731C98.248 43.9407 96.5879 44.2407 94.7695 43.9407C90.8555 43.2949 89.2902 45.2288 91.4516 48.0383C92.8645 49.8742 92.7548 49.8718 90.1705 48.0092C87.2927 45.9351 80.7783 46.0863 75.6663 48.3455C74.3955 48.9066 71.9048 49.6976 70.1315 50.1016C68.3582 50.5043 67.1972 51.3255 67.5507 51.9254C67.9053 52.5252 67.635 53.3779 66.9511 53.8205C66.1493 54.3394 66.4335 55.1799 67.7505 56.1886C70.0934 57.981 73.1583 57.2444 71.9718 55.1727C71.5363 54.4107 72.0561 54.5329 73.1282 55.4424C74.7918 56.855 75.5069 56.803 78.0034 55.0904C79.6138 53.9862 81.3998 53.3864 81.9728 53.7577C82.547 54.1289 83.3556 53.8568 83.7704 53.1541C84.1851 52.4503 85.6003 52.2326 86.9127 52.6692C88.7657 53.2848 89.1458 53.038 88.6074 51.5698C88.0483 50.0459 88.4076 49.8754 90.4547 50.6966C92.3574 51.4585 93.6951 51.063 95.7804 49.1231C97.3122 47.6972 98.2145 47.1735 97.7836 47.9597C96.5613 50.1886 98.7701 50.8695 101.197 49.0119C102.433 48.0649 103.895 47.7782 104.556 48.3527C106.481 50.0266 113.787 47.8968 113.805 45.6569C113.823 43.1425 115.476 41.3163 115.659 43.6081C115.735 44.5503 115.718 45.7815 115.623 46.3427C115.215 48.7518 118.42 46.0802 119.13 43.4183C119.643 41.4965 119.953 41.2147 120.028 42.6007C120.133 44.5321 122.415 45.4416 125.342 44.7184C125.977 44.5612 127.537 44.2939 128.808 44.1246C130.079 43.9552 131.118 43.6771 131.118 43.5078C131.118 43.0445 134.948 42.429 142.671 41.6525C150.744 40.8398 152.843 40.2447 152.096 38.9809C151.8 38.4778 153.066 38.0653 154.911 38.0653C156.757 38.0653 158.267 38.4221 158.267 38.8587C158.267 39.2953 159.306 39.3679 160.577 39.0208C161.848 38.6725 162.888 37.8803 162.888 37.2599C162.888 36.6358 165.187 36.4145 168.033 36.7652C171.668 37.2127 173.677 36.8777 174.872 35.6259C176.085 34.3572 176.694 34.2605 177.021 35.2861C177.371 36.3867 179.329 36.3794 185.489 35.251C189.896 34.4443 194.411 33.761 195.524 33.7332C196.636 33.7054 197.545 33.1611 197.545 32.525C197.545 31.8888 198.852 31.711 200.448 32.1307C202.113 32.5673 204.084 32.2565 205.069 31.4002C206.014 30.579 206.787 30.4109 206.787 31.0253C206.787 31.7013 209.874 31.7376 214.585 31.1172C218.875 30.5512 223.683 30.1279 225.271 30.1762C226.86 30.2234 230.499 29.7106 233.358 29.0345C236.217 28.3597 241.156 27.5627 244.333 27.2639C247.51 26.9664 251.929 26.3823 254.152 25.9674C256.376 25.5526 261.575 25.0398 265.705 24.8294C280.022 24.0977 291.705 22.6996 293.039 21.5579C293.783 20.9229 294.658 20.8806 295.002 21.4635C295.877 22.9451 305.315 21.9824 308.16 20.1211C308.955 19.601 309.604 19.6651 309.604 20.2626C309.604 20.86 311.293 21.1539 313.359 20.9157C315.425 20.6774 318.796 20.363 320.851 20.2166C324.8 19.9372 326.872 17.164 324.373 15.5035C323.558 14.9617 323.328 14.5105 323.863 14.4997C324.399 14.49 326.158 15.57 327.773 16.9004C330.772 19.37 339.641 20.3472 339.641 18.2078C339.641 17.5474 341.327 17.5825 343.79 18.2948C348.899 19.7715 351.381 18.9358 350.488 16.0393C350.065 14.6702 350.183 14.3956 350.808 15.293C352.299 17.4325 358.125 18.6988 358.125 16.8834C358.125 15.7079 358.488 15.7103 359.848 16.8907C361.003 17.8957 363.294 18.1171 366.81 17.5656C371.928 16.7613 372.043 16.6452 371.784 12.5888C371.619 10.0381 370.911 8.43438 369.951 8.43438C369.091 8.43438 368.741 9.03547 369.174 9.76959C369.607 10.5037 368.599 10.1687 366.931 9.02579C365.188 7.82967 363.901 7.50675 363.901 8.26506C363.901 9.15278 363.006 9.22776 361.166 8.49485C359.301 7.75226 357.47 7.92884 355.409 9.04756ZM404.794 10.6513C405.121 11.2064 404.655 11.6599 403.757 11.6599C402.86 11.6599 402.394 11.2064 402.721 10.6513C403.048 10.0973 403.515 9.64381 403.757 9.64381C404 9.64381 404.467 10.0973 404.794 10.6513ZM246.066 23.0189C246.066 23.6453 245.546 24.1569 244.91 24.1569C244.275 24.1569 243.755 23.3079 243.755 22.2714C243.755 21.235 244.275 20.7222 244.91 21.1334C245.546 21.5446 246.066 22.3924 246.066 23.0189ZM86.6412 47.6694C86.6412 47.9633 86.1213 48.539 85.4859 48.9502C84.8505 49.3614 84.3307 49.1207 84.3307 48.4168C84.3307 47.7129 84.8505 47.136 85.4859 47.136C86.1213 47.136 86.6412 47.3755 86.6412 47.6694ZM54.583 55.6976C53.1539 56.2672 51.9837 57.2952 51.9837 57.9822C51.9837 59.7516 55.1387 59.5363 55.8434 57.7185C56.2951 56.5514 56.6844 56.5889 57.5485 57.8818C58.8089 59.7685 64.6914 58.8191 64.6914 56.728C64.6914 55.8959 64.0191 55.8754 62.6709 56.6663C61.2569 57.4936 60.1282 57.3702 58.9163 56.2551C57.7495 55.1824 56.332 54.9997 54.583 55.6976ZM47.3627 57.9495C47.3627 58.576 47.9634 59.4758 48.697 59.9499C49.4849 60.4603 49.7182 60.2849 49.2665 59.5206C48.8472 58.8094 49.1568 57.9519 49.955 57.6145C50.8307 57.2456 50.6043 56.9651 49.3843 56.907C48.2718 56.855 47.3627 57.323 47.3627 57.9495ZM41.5864 60.4579C41.5864 61.192 42.1063 61.4557 42.7417 61.0444C43.377 60.6332 43.8969 61.146 43.8969 62.1825C43.8969 63.219 44.6767 64.068 45.6298 64.068C47.5082 64.068 47.8201 62.9553 46.4789 61.0444C45.2636 59.3138 41.5864 58.8735 41.5864 60.4579ZM53.7165 61.6492C53.3238 62.3143 53.5537 62.8586 54.226 62.8586C54.8984 62.8586 55.4494 62.3143 55.4494 61.6492C55.4494 60.984 55.2207 60.4397 54.9399 60.4397C54.6592 60.4397 54.1093 60.984 53.7165 61.6492ZM35.9014 63.5637C35.9569 64.9727 36.2307 65.2593 36.5992 64.2954C36.9331 63.4222 36.8915 62.3785 36.5079 61.9769C36.1244 61.5754 35.8517 62.289 35.9014 63.5637ZM27.7234 65.2787C26.2828 66.2825 26.2562 66.6659 27.5628 67.5475C29.5926 68.919 33.7249 67.7991 33.1623 66.0309C32.5755 64.1865 29.834 63.808 27.7234 65.2787ZM21.4747 67.5185C21.1396 68.0857 21.6121 69.5818 22.5248 70.8444C23.4374 72.1059 24.201 72.5026 24.2207 71.7261C24.2415 70.9485 24.573 69.4524 24.9589 68.4002C25.7006 66.3768 22.6103 65.5943 21.4747 67.5185ZM17.1783 68.9662C16.5394 71.327 16.6492 74.9529 17.3608 74.9529C18.8869 74.9529 19.7603 70.9702 18.5195 69.6713C17.8633 68.9843 17.2603 68.6663 17.1783 68.9662ZM10.9723 72.2498C9.68764 73.2379 9.11001 78.5811 10.2884 78.5811C10.6996 78.5811 11.9473 77.4673 13.061 76.1054C15.7504 72.8182 14.1273 69.8237 10.9723 72.2498ZM5.77365 76.0909C5.77365 77.46 6.29351 78.5811 6.9289 78.5811C7.56428 78.5811 8.08415 77.7974 8.08415 76.8384C8.08415 75.8793 7.56428 74.7593 6.9289 74.3481C6.29351 73.9369 5.77365 74.7219 5.77365 76.0909ZM1.00477 76.9992C-0.348026 78.7456 -0.339939 78.8944 1.06022 78.0103C2.29057 77.2338 2.51584 77.4781 1.96248 78.9875C1.55698 80.0941 1.67366 81 2.2201 81C3.22285 81 4.6184 78.1264 4.6184 76.0631C4.6184 74.2877 2.72725 74.7775 1.00477 76.9992Z" fill="#FFA900"/>
</svg>
