<?xml version="1.0" encoding="UTF-8"?><svg id="Layer_2" xmlns="http://www.w3.org/2000/svg" xmlns:xlink="http://www.w3.org/1999/xlink" viewBox="0 0 96.01 96.01"><defs><style>.cls-1{stroke-width:.16px;}.cls-1,.cls-2,.cls-3,.cls-4,.cls-5,.cls-6,.cls-7,.cls-8,.cls-9,.cls-10,.cls-11,.cls-12,.cls-13,.cls-14,.cls-15,.cls-16,.cls-17,.cls-18,.cls-19{stroke:#fff;}.cls-1,.cls-2,.cls-3,.cls-5,.cls-6,.cls-7,.cls-8,.cls-9,.cls-20,.cls-11,.cls-12,.cls-13,.cls-21,.cls-14,.cls-15,.cls-16,.cls-18{stroke-miterlimit:10;}.cls-1,.cls-5,.cls-22,.cls-6,.cls-7,.cls-10,.cls-13,.cls-16,.cls-19{fill:#242930;}.cls-2{stroke-width:.14px;}.cls-2,.cls-3,.cls-4,.cls-8,.cls-9,.cls-20,.cls-11,.cls-12,.cls-21,.cls-14,.cls-18{fill:none;}.cls-3,.cls-4,.cls-16{stroke-width:.08px;}.cls-4,.cls-17,.cls-19{stroke-miterlimit:20;}.cls-5,.cls-14{stroke-width:.16px;}.cls-23{fill:#f3cc2c;}.cls-6{stroke-width:.15px;}.cls-7{stroke-width:.26px;}.cls-8,.cls-19{stroke-width:.12px;}.cls-9{stroke-width:.27px;}.cls-10{stroke-width:.14px;}.cls-20{stroke-width:1.01px;}.cls-20,.cls-21{stroke:#f3cc2c;}.cls-11{stroke-width:.4px;}.cls-12{stroke-width:.4px;}.cls-13{stroke-width:.22px;}.cls-24{fill:url(#radial-gradient);}.cls-15{fill:#ffd93f;stroke-width:.08px;}.cls-17{fill:url(#linear-gradient);stroke-width:.28px;}.cls-18{stroke-width:.25px;}</style><radialGradient id="radial-gradient" cx="-75.17" cy="-464.17" fx="-75.17" fy="-464.17" r=".08" gradientTransform="translate(30650.91 -188929.93) scale(407.13 -407.13)" gradientUnits="userSpaceOnUse"><stop offset=".65" stop-color="#ffd93f"/><stop offset="1" stop-color="#ffb640"/></radialGradient><linearGradient id="linear-gradient" x1="2.74" y1="-1514.42" x2="28.06" y2="-1506.69" gradientTransform="translate(4 -1456.23) scale(1 -1)" gradientUnits="userSpaceOnUse"><stop offset=".21" stop-color="#ffd93f"/><stop offset=".41" stop-color="#fff"/><stop offset=".58" stop-color="#fff"/><stop offset=".95" stop-color="#ffd93f"/></linearGradient></defs><g id="Usage_Examples"><g id="Mascot_-_Stroked_Ring_Pattern_-_Rightside_up_on_top_-_Primary_Color"><g id="_21-L2_Pattern_Ring_-_Rightside_up_on_top_-_Primary_Color_-_Darker_Offset_1"><g id="Pattern"><g><g><path class="cls-23" d="M88.84,49.94l-.71-.03c-.07,.91-.04,1.83-.19,2.73l-.71-.08c.16-1.11,.14-2.23,.22-3.35l2.14,.06-.14,2.83,.71,.07,.15-2.88,.71,.02c-.09,1.22-.07,2.44-.24,3.65l-2.13-.24c.15-.92,.12-1.85,.19-2.78Z"/><path class="cls-23" d="M86.92,58l-.69-.18c.17-.76,.44-1.51,.54-2.28l.35-2.32,4.25,.57,.11-.74,.71,.08-.23,1.5-4.24-.64-.31,2.03c-.15,.67-.34,1.32-.5,1.99Z"/><path class="cls-23" d="M89.63,55.72l-.7-.13c-.1,.94-.41,1.84-.63,2.76l-.69-.18,.43-1.68c.14-.56,.19-1.14,.29-1.72l2.11,.35-.22,1.45c-.1,.48-.24,.95-.35,1.42l.69,.17c.12-.48,.26-.96,.36-1.45l.23-1.47,.7,.12c-.11,.62-.17,1.25-.31,1.86l-.47,1.83-2.08-.53c.22-.93,.54-1.85,.64-2.81Z"/></g><g><path class="cls-23" d="M87.13,60.05l-.68-.21c-.29,.86-.62,1.71-.93,2.57l-.67-.26,.58-1.58,.29-.79,.21-.81,2.06,.59c-.19,.93-.59,1.79-.89,2.68l.67,.24c.31-.91,.71-1.79,.91-2.73l.69,.2-.23,.89-.31,.86-.63,1.72-2-.77c.31-.87,.65-1.74,.94-2.62Z"/><path class="cls-23" d="M83.24,67.38l-.63-.34c.38-.68,.69-1.41,1.04-2.11,.32-.71,.73-1.39,.96-2.14l3.97,1.61,.26-.7,.67,.26-.53,1.42-3.94-1.68c-.61,1.23-1.17,2.47-1.8,3.68Z"/><path class="cls-23" d="M86.39,65.83l-.65-.3c-.42,.85-.8,1.71-1.25,2.54l-.63-.34c.54-1.02,1.02-2.08,1.53-3.12l1.96,.87-1.27,2.64,.63,.33,1.29-2.68,.65,.29c-.55,1.13-1.07,2.29-1.67,3.4l-1.88-1.03c.46-.84,.85-1.72,1.27-2.58Z"/></g><g><path class="cls-23" d="M82.87,69.37l-.61-.37c-.48,.78-.92,1.58-1.5,2.28l-.58-.41c.72-.87,1.22-1.88,1.82-2.82l1.84,1.09c-.5,.8-.95,1.63-1.5,2.4l.59,.4c.55-.79,1.01-1.63,1.52-2.44l.61,.36c-.66,1.03-1.21,2.12-1.99,3.07l-1.75-1.24c.59-.72,1.04-1.53,1.53-2.33Z"/><path class="cls-23" d="M77.29,75.51l-.52-.49,1.58-1.74c.5-.6,.94-1.25,1.42-1.87l3.44,2.55,.45-.6,.58,.41-.91,1.21-3.4-2.61c-.77,1.13-1.73,2.11-2.65,3.13Z"/><path class="cls-23" d="M80.78,74.83l-.55-.45c-.61,.72-1.26,1.4-1.89,2.1l-.52-.49,1.17-1.29,.59-.64,.52-.7,1.68,1.33c-.55,.81-1.26,1.49-1.9,2.22l.53,.48c.65-.75,1.37-1.44,1.94-2.26l.56,.44-.57,.75-.63,.7-1.27,1.4-1.56-1.47c.64-.71,1.3-1.41,1.93-2.14Z"/></g><g><polygon class="cls-23" points="76.47 77.38 75.97 76.87 73.95 78.71 73.48 78.16 75.97 75.9 77.49 77.41 75.39 79.32 75.86 79.86 77.99 77.92 78.5 78.42 75.79 80.89 74.41 79.25 76.47 77.38"/><path class="cls-23" d="M69.53,81.93l-.38-.6c.33-.21,.67-.4,1-.61l.94-.71,1.88-1.41,2.7,3.32c.21-.14,.38-.32,.56-.48l.46,.55c-.36,.35-.78,.64-1.18,.95l-2.65-3.37-1.64,1.23c-.28,.2-.54,.42-.83,.61l-.88,.53Z"/><path class="cls-23" d="M73.05,82.11l-.42-.58-1.13,.85c-.38,.29-.8,.5-1.2,.76l-.38-.6c1.02-.56,1.91-1.31,2.85-1.99l1.3,1.7c-.79,.57-1.54,1.21-2.37,1.72l.39,.6c.84-.52,1.61-1.17,2.41-1.74l.43,.57c-1.02,.74-1.99,1.55-3.1,2.17l-1.15-1.81c.4-.26,.83-.48,1.22-.77l1.15-.86Z"/></g><g><path class="cls-23" d="M68.27,83.54l-.35-.62c-.76,.51-1.61,.85-2.42,1.26l-.31-.64,1.51-.73c.49-.26,.96-.58,1.44-.86l1.09,1.84-1.21,.74c-.41,.24-.85,.42-1.27,.63l.32,.64c.43-.22,.87-.4,1.29-.64l1.23-.75,.36,.61c-.53,.31-1.04,.65-1.57,.94l-1.65,.8-.93-1.93c.83-.42,1.69-.76,2.47-1.28Z"/><path class="cls-23" d="M60.43,86.24l-.22-.68,2.21-.81c.37-.14,.74-.25,1.1-.42l1.06-.51,1.79,3.89,.67-.32,.31,.64-1.36,.66-1.73-3.92c-.6,.33-1.26,.52-1.9,.76l-1.93,.71Z"/><polygon class="cls-23" points="63.8 87.29 63.53 86.63 60.87 87.6 60.65 86.92 63.92 85.73 64.75 87.7 62 88.71 62.23 89.38 65.03 88.36 65.31 89.02 61.75 90.32 61.09 88.28 63.8 87.29"/></g><g><path class="cls-23" d="M58.79,87.45l-.19-.69c-.88,.22-1.76,.47-2.65,.67l-.14-.7c1.09-.25,2.17-.55,3.25-.82l.6,2.06-2.74,.71,.15,.7,2.79-.72,.2,.69c-1.18,.3-2.36,.63-3.55,.89l-.42-2.1c.91-.2,1.8-.45,2.7-.68Z"/><path class="cls-23" d="M50.53,88.09l-.04-.71c1.57,0,3.11-.34,4.66-.55l.76,4.22,.74-.11,.14,.7-1.5,.23-.69-4.23-2.03,.31c-.67,.13-1.36,.09-2.04,.15Z"/><path class="cls-23" d="M53.53,89.96l-.09-.71c-.47,.06-.93,.17-1.4,.19l-1.41,.07-.04-.71c.58-.03,1.16-.05,1.74-.1l1.72-.26,.31,2.12c-.97,.14-1.93,.34-2.91,.34l.06,.71c.99,0,1.97-.21,2.95-.35l.1,.71-1.87,.28c-.63,.06-1.26,.07-1.89,.11l-.13-2.14,1.44-.07c.48-.03,.95-.13,1.43-.19Z"/></g><g><path class="cls-23" d="M48.64,88.9v-.71c-.47,.04-.92,.03-1.38,0l-1.37-.07,.04-.71c1.12,.06,2.24,.15,3.36,.04l.07,2.14-1.41,.07-1.41-.07-.02,.71,1.44,.07,1.44-.07,.02,.71c-1.22,.11-2.44,.02-3.66-.04l.11-2.14,1.39,.07c.46,.03,.93,.05,1.39,0Z"/><path class="cls-23" d="M40.47,87.49l.13-.7,2.32,.35c.39,.05,.77,.13,1.16,.17l1.17,.06-.3,4.27,.74,.04-.04,.71-1.51-.08,.37-4.27c-.69,0-1.36-.15-2.03-.25l-2.03-.31Z"/><polygon class="cls-23" points="42.92 90.03 43 89.32 40.2 88.89 40.34 88.19 43.78 88.72 43.56 90.85 40.66 90.41 40.54 91.11 43.49 91.56 43.41 92.27 39.67 91.7 40.07 89.59 42.92 90.03"/></g><g><polygon class="cls-23" points="38.45 87.77 38.62 87.07 35.97 86.39 36.19 85.7 39.44 86.55 38.97 88.64 36.23 87.93 36.03 88.62 38.82 89.34 38.67 90.03 35.12 89.11 35.76 87.07 38.45 87.77"/><path class="cls-23" d="M30.9,84.36l.3-.65c1.38,.75,2.89,1.2,4.35,1.76l-1.36,4.06,.7,.25-.21,.68-1.42-.52,1.43-4.04-1.93-.7c-.65-.22-1.24-.57-1.86-.85Z"/><path class="cls-23" d="M32.63,87.44l.26-.67c-.44-.17-.9-.3-1.32-.51l-1.28-.61,.3-.65c.52,.25,1.04,.51,1.57,.75l1.63,.6-.74,2.01c-.91-.34-1.85-.64-2.71-1.1l-.29,.65c.88,.47,1.83,.77,2.76,1.12l-.25,.67-1.78-.65c-.58-.25-1.14-.54-1.71-.81l.91-1.94,1.3,.62c.43,.21,.9,.34,1.34,.52Z"/></g><g><path class="cls-23" d="M28.86,84.17l.33-.63c-.82-.41-1.57-.93-2.36-1.39l.38-.61c.97,.56,1.88,1.22,2.92,1.65l-.97,1.91c-.87-.38-1.67-.88-2.47-1.38l-.37,.61c.82,.5,1.63,1.02,2.51,1.4l-.32,.64c-1.12-.48-2.13-1.19-3.18-1.8l1.13-1.82c.8,.47,1.57,1,2.4,1.41Z"/><path class="cls-23" d="M22.38,78.99l.46-.55,1.88,1.41c.63,.47,1.24,.96,1.93,1.34l-2.33,3.6,.64,.39-.38,.61-1.29-.79,2.39-3.56c-1.11-.8-2.2-1.63-3.29-2.45Z"/><polygon class="cls-23" points="23.31 82.37 23.73 81.79 21.46 80.09 21.92 79.54 24.7 81.63 23.48 83.39 21.13 81.64 20.69 82.19 23.07 83.98 22.67 84.56 19.64 82.29 21.01 80.64 23.31 82.37"/></g><g><path class="cls-23" d="M20.49,78.24l.48-.53c-.66-.62-1.39-1.19-1.97-1.9l.52-.49,.56,.62,.62,.56,1.24,1.13-1.42,1.61c-.69-.64-1.41-1.26-2.09-1.92l-.51,.5c.69,.67,1.41,1.3,2.12,1.95l-.47,.54-1.35-1.23-.68-.62-.62-.68,1.55-1.48c.59,.72,1.33,1.29,2,1.93Z"/><path class="cls-23" d="M15.5,71.62l.58-.42,1.41,1.88,1.58,1.74-3.15,2.91,.5,.55-.52,.49-1.02-1.12,3.2-2.85c-.45-.52-.95-.99-1.35-1.54l-1.23-1.64Z"/><path class="cls-23" d="M15.52,75.17l.55-.46c-.61-.72-1.14-1.5-1.72-2.25l.58-.42c.72,.91,1.33,1.9,2.16,2.73l-1.62,1.4c-.69-.7-1.24-1.5-1.83-2.28l-.57,.43c.6,.79,1.16,1.61,1.86,2.32l-.54,.47c-.89-.9-1.57-1.97-2.34-2.96l1.73-1.26c.58,.76,1.13,1.56,1.75,2.29Z"/></g><g><path class="cls-23" d="M13.81,70.46l.6-.39-1.42-2.34,.62-.35c.59,.95,1.15,1.92,1.76,2.86l-1.77,1.21c-.52-.79-.99-1.61-1.49-2.41l-.62,.36c.51,.82,.98,1.65,1.51,2.45l-.59,.4c-.67-1.02-1.28-2.08-1.92-3.12l1.87-1.05,1.45,2.38Z"/><path class="cls-23" d="M10.64,62.8l.66-.26c.24,.75,.6,1.45,.94,2.15l1.02,2.12-3.77,2.03,.38,.64-.62,.35c-.28-.42-.51-.87-.72-1.33l3.81-1.97-.89-1.85-.45-.92c-.14-.31-.24-.64-.36-.96Z"/><path class="cls-23" d="M9.81,66.22l.64-.31c-.4-.85-.86-1.68-1.14-2.59l.66-.26,.3,.82c.12,.27,.25,.52,.37,.79l.76,1.57-1.92,.96c-.41-.88-.87-1.75-1.25-2.65l-.66,.27c.39,.91,.85,1.8,1.27,2.69l-.64,.32-.82-1.71c-.13-.29-.28-.57-.4-.86l-.33-.89,1.99-.79c.29,.92,.76,1.76,1.16,2.63Z"/></g><g><path class="cls-23" d="M9.31,61.25l.68-.23c-.15-.43-.34-.85-.45-1.29l-.34-1.32,.69-.18c.14,.54,.27,1.09,.42,1.62l.58,1.58-2.02,.73c-.32-.89-.69-1.76-.88-2.69l-.69,.2c.2,.94,.58,1.83,.9,2.73l-.67,.24-.63-1.72c-.17-.58-.31-1.18-.47-1.77l2.07-.55,.35,1.35c.11,.45,.31,.88,.46,1.31Z"/><path class="cls-23" d="M8.14,53.04l.71-.09c.25,1.55,.41,3.11,.87,4.61l-4.16,1.03,.19,.72-.69,.18-.38-1.47,4.18-.96-.25-.99-.15-1.01-.31-2.03Z"/><path class="cls-23" d="M6.45,56.16l.7-.14-.43-2.8,.71-.09c.19,1.14,.32,2.3,.56,3.43l-2.1,.45c-.21-.95-.31-1.93-.48-2.89l-.71,.1c.16,.98,.27,1.97,.48,2.94l-.7,.15c-.26-1.23-.4-2.49-.61-3.73l2.13-.27,.43,2.85Z"/></g><g><polygon class="cls-23" points="7.24 51.21 7.95 51.16 7.81 48.42 8.53 48.42 8.7 51.77 6.56 51.98 6.42 49.15 5.71 49.17 5.85 52.04 5.14 52.11 4.96 48.45 7.1 48.43 7.24 51.21"/><path class="cls-23" d="M8.14,42.97l.71,.09c-.15,.77-.17,1.56-.21,2.34l-.12,2.35-4.28-.04c-.02,.25,0,.5,0,.74h-.72c-.05-.5,.01-1,.03-1.5l4.28,.11,.1-2.05,.05-1.03c.03-.34,.1-.68,.15-1.01Z"/><path class="cls-23" d="M5.77,45.57l.71,.04c.06-.94,.06-1.89,.24-2.82l.71,.09-.13,.86c-.03,.29-.03,.58-.05,.87l-.09,1.74-2.14-.09c.06-.97,.07-1.95,.18-2.92l-.71-.08c-.11,.99-.12,1.98-.18,2.97l-.71-.03,.1-1.89c.02-.31,.02-.63,.06-.94l.14-.94,2.13,.27c-.19,.95-.19,1.91-.24,2.87Z"/></g><g><path class="cls-23" d="M7.73,40.97l.7,.12c.08-.45,.12-.9,.22-1.35l.34-1.32,.69,.17c-.13,.54-.3,1.08-.4,1.63l-.25,1.66-2.12-.33c.16-.93,.23-1.88,.51-2.78l-.7-.16c-.28,.92-.36,1.88-.52,2.83l-.71-.11,.28-1.81c.11-.6,.29-1.18,.44-1.78l2.08,.51-.35,1.35c-.1,.45-.15,.92-.23,1.37Z"/><path class="cls-23" d="M10.64,33.21l.66,.26c-.53,1.47-1.13,2.93-1.45,4.46l-4.14-1.1-.19,.72-.69-.17,.38-1.47,4.12,1.17,.25-.99,.35-.96,.7-1.93Z"/><path class="cls-23" d="M7.66,35.13l.68,.22,.97-2.66,.66,.26c-.38,1.09-.84,2.17-1.16,3.28l-2.05-.62c.26-.94,.65-1.84,.97-2.76l-.67-.25c-.32,.94-.72,1.85-.98,2.81l-.68-.21c.35-1.21,.84-2.38,1.26-3.57l1.99,.79-.99,2.71Z"/></g><g><polygon class="cls-23" points="10.73 31.17 11.38 31.47 12.57 29 13.2 29.34 11.74 32.37 9.77 31.52 11 28.96 10.37 28.64 9.12 31.23 8.46 30.95 10.05 27.65 11.94 28.66 10.73 31.17"/><path class="cls-23" d="M15.5,24.4l.58,.42c-1,1.21-1.71,2.62-2.55,3.94l-3.73-2.1c-.12,.22-.27,.42-.37,.65l-.63-.34c.23-.45,.51-.87,.77-1.3l3.7,2.16c.72-1.16,1.37-2.37,2.24-3.43Z"/><path class="cls-23" d="M12.16,25.52l.6,.38,.74-1.21,.85-1.13,.58,.42c-.34,.47-.72,.91-1.02,1.41l-.9,1.49-1.83-1.11c.53-.82,.96-1.7,1.58-2.46l-.58-.41c-.63,.77-1.07,1.67-1.61,2.5l-.61-.37,.98-1.62c.33-.54,.74-1.02,1.1-1.53l1.73,1.26-.86,1.15-.75,1.23Z"/></g><g><path class="cls-23" d="M16.08,22.43l.56,.45c.53-.74,1.21-1.37,1.8-2.06l.53,.48c-.75,.83-1.54,1.63-2.17,2.56l-1.69-1.31c.29-.37,.56-.76,.86-1.13l.95-1.05-.53-.47-.97,1.07c-.31,.37-.58,.76-.87,1.15l-.56-.44c.69-1.01,1.55-1.89,2.36-2.79l1.58,1.45c-.6,.7-1.29,1.34-1.83,2.09Z"/><path class="cls-23" d="M22.38,17.02l.46,.55-1.74,1.58c-.59,.52-1.17,1.04-1.67,1.65l-3.1-2.96-.5,.55-.53-.48,1.02-1.12,3.05,3.01c.97-.96,2.01-1.85,3.02-2.78Z"/><polygon class="cls-23" points="18.88 17.31 19.37 17.83 21.46 15.92 21.92 16.47 19.34 18.81 17.84 17.28 20.01 15.31 19.55 14.77 17.34 16.77 16.84 16.26 19.64 13.72 21.01 15.37 18.88 17.31"/></g><g><path class="cls-23" d="M23.46,15.31l.43,.57,1.09-.82,.55-.41,.59-.35,.39,.6c-.49,.27-.94,.61-1.38,.95l-1.34,1.01-1.32-1.69,2.27-1.7-.4-.59-2.31,1.72-.44-.56,1.47-1.1c.49-.37,.97-.74,1.51-1.04l1.17,1.8-.6,.36-.56,.42-1.11,.83Z"/><path class="cls-23" d="M30.9,11.65l.3,.65c-.7,.34-1.42,.67-2.11,1.03l-2.01,1.22-2.27-3.64-.64,.39-.39-.6,1.29-.79,2.21,3.67c.59-.35,1.16-.73,1.76-1.05l1.85-.89Z"/><path class="cls-23" d="M27.41,11.01l.35,.62c.81-.49,1.69-.84,2.53-1.27l.3,.65c-1.04,.52-2.12,.96-3.08,1.61l-1.08-1.85c.42-.24,.82-.53,1.26-.74l1.32-.64-.32-.64-1.34,.65c-.45,.21-.86,.5-1.29,.75l-.36-.62c1.05-.7,2.22-1.19,3.35-1.75l.91,1.94c-.86,.43-1.75,.79-2.57,1.29Z"/></g><g><path class="cls-23" d="M32.35,10.19l.27,.66,2.57-.94,.23,.68c-1.04,.4-2.12,.73-3.14,1.19l-.85-1.96c.86-.4,1.76-.67,2.64-1.01l-.24-.67c-.89,.35-1.82,.62-2.69,1.03l-.28-.66c1.11-.5,2.28-.86,3.42-1.3l.68,2.03-2.61,.96Z"/><path class="cls-23" d="M40.47,8.52l.13,.7c-.78,.08-1.52,.36-2.29,.53-.76,.21-1.52,.37-2.27,.6l-1.29-4.09-.7,.26-.23-.68c.48-.17,.94-.36,1.44-.47l1.22,4.11c1.33-.31,2.64-.74,3.98-.96Z"/><path class="cls-23" d="M37.27,7.07l.18,.69c.92-.21,1.82-.53,2.76-.65l.13,.7c-1.15,.17-2.25,.55-3.38,.81l-.58-2.06,2.84-.73-.15-.7-2.89,.74-.19-.69c1.23-.29,2.43-.69,3.68-.88l.4,2.1c-.95,.12-1.87,.44-2.8,.66Z"/></g><g><path class="cls-23" d="M42.25,7.53l.1,.71,1.35-.21c.45-.06,.91-.06,1.36-.09l.05,.71c-1.12,0-2.22,.23-3.33,.39l-.34-2.12c.94-.12,1.86-.34,2.81-.38l-.06-.71c-.96,.04-1.9,.26-2.85,.38l-.11-.71c1.21-.17,2.41-.42,3.63-.43l.15,2.14c-.46,.03-.93,.03-1.39,.09l-1.38,.21Z"/><path class="cls-23" d="M50.53,7.92l-.04,.71-2.35-.12c-.78,.01-1.57,.08-2.35,.11l-.23-4.28-.74,.04-.05-.71,1.51-.08,.16,4.28c.68-.01,1.37-.12,2.05-.06l2.05,.1Z"/><path class="cls-23" d="M47.79,5.66v.71c.95,0,1.89,.08,2.83,.12l-.04,.71-1.74-.09-.87-.04-.87,.04-.05-2.14c.98-.09,1.95,.01,2.93,.05l.03-.71c-.99-.04-1.98-.14-2.97-.05l-.02-.71,.94-.05,.94,.04,1.89,.09-.13,2.14c-.96-.04-1.92-.12-2.88-.12Z"/></g><g><path class="cls-23" d="M52.5,7.34l-.08,.71,2.7,.41-.13,.7c-1.11-.15-2.21-.38-3.32-.47l.2-2.13c.94,.06,1.87,.26,2.8,.39l.11-.71c-.95-.13-1.89-.33-2.85-.39l.07-.71c1.21,.1,2.42,.34,3.62,.51l-.38,2.11-2.75-.42Z"/><path class="cls-23" d="M60.43,9.77l-.22,.68c-.73-.29-1.51-.41-2.26-.63-.76-.18-1.51-.42-2.28-.56l.83-4.2-.74-.11,.13-.7c.5,.09,1,.12,1.49,.27l-.91,4.19c1.32,.36,2.66,.63,3.96,1.07Z"/><path class="cls-23" d="M58.32,6.97l-.17,.69c.91,.26,1.84,.42,2.73,.75l-.22,.68c-1.09-.38-2.24-.6-3.35-.91l.48-2.09,2.84,.73,.21-.68-2.89-.74,.16-.7c1.22,.33,2.46,.58,3.65,1l-.66,2.04c-.9-.34-1.85-.51-2.78-.77Z"/></g><g><path class="cls-23" d="M62.46,9.76l-.25,.67,1.28,.47c.42,.17,.82,.39,1.24,.58l-.3,.65c-.99-.53-2.06-.87-3.11-1.26l.72-2.02c.88,.35,1.79,.6,2.64,1.02l.29-.65c-.86-.43-1.79-.69-2.69-1.04l.24-.67c1.14,.43,2.31,.8,3.39,1.37l-.89,1.95c-.42-.19-.83-.42-1.26-.59l-1.31-.48Z"/><path class="cls-23" d="M69.53,14.08l-.38,.6-2.01-1.22c-.67-.4-1.4-.69-2.1-1.05l1.86-3.86-.67-.32,.3-.65,1.36,.66-1.93,3.83c1.26,.54,2.39,1.32,3.57,2.02Z"/><path class="cls-23" d="M68.22,10.78l-.34,.63,2.42,1.47-.38,.6-1.49-.9c-.49-.3-.98-.62-1.52-.85l.99-1.9c.45,.2,.87,.44,1.28,.7l1.25,.76,.37-.61-1.27-.77c-.42-.27-.85-.51-1.31-.71l.33-.63c.58,.25,1.11,.59,1.65,.92l1.62,.98-1.15,1.81-2.46-1.5Z"/></g><g><polygon class="cls-23" points="71.53 14.54 71.11 15.13 73.31 16.77 72.86 17.32 70.17 15.31 71.37 13.54 73.64 15.23 74.08 14.67 71.77 12.95 72.17 12.35 75.11 14.55 73.76 16.21 71.53 14.54"/><path class="cls-23" d="M77.29,20.51l-.52,.49-.79-.87c-.28-.27-.58-.53-.87-.79l-1.74-1.58,2.76-3.28c-.18-.17-.37-.33-.57-.47l.45-.56c.42,.29,.76,.66,1.14,.99l-2.82,3.23c.99,.94,2.08,1.79,2.95,2.85Z"/><path class="cls-23" d="M76.81,17.01l-.49,.52,1.05,.95c.33,.33,.64,.69,.96,1.04l-.52,.49c-.75-.89-1.63-1.65-2.49-2.43l1.43-1.59c.7,.67,1.49,1.27,2.13,2.01l.51-.5c-.65-.75-1.44-1.36-2.16-2.05l.48-.53c.93,.85,1.89,1.67,2.7,2.64l-1.56,1.47c-.33-.35-.64-.72-.98-1.06l-1.07-.97Z"/></g><g><path class="cls-23" d="M79.11,21.45l-.54,.46,.46,.51,.41,.55,.82,1.1-.57,.43-1-1.35c-.33-.45-.74-.84-1.11-1.26l1.6-1.42,.95,1.05,.85,1.13,.57-.44-.86-1.15-.97-1.07,.53-.47c.4,.46,.85,.88,1.2,1.38l1.1,1.47-1.72,1.28-.83-1.12-.42-.56-.47-.51Z"/><path class="cls-23" d="M83.24,28.64l-.63,.34-1.22-2.01-.61-1.01-.7-.94,3.49-2.49-.45-.6,.57-.43,.9,1.21-3.53,2.43c.78,1.12,1.44,2.33,2.17,3.48Z"/><polygon class="cls-23" points="83.63 25.14 83.02 25.53 84.5 27.95 83.87 28.29 82.06 25.32 83.85 24.13 85.37 26.63 85.99 26.28 84.44 23.73 85.03 23.34 87 26.57 85.12 27.6 83.63 25.14"/></g><g><path class="cls-23" d="M84.73,30.02l-.64,.31c.37,.83,.84,1.62,1.14,2.48l-.66,.27c-.4-1.05-.95-2.03-1.41-3.04l1.91-.98,1.23,2.55,.66-.28-1.25-2.6,.64-.33c.51,1.11,1.11,2.18,1.54,3.32l-1.98,.81c-.31-.87-.78-1.68-1.16-2.53Z"/><path class="cls-23" d="M86.92,38.01l-.69,.18c-.21-.75-.35-1.53-.62-2.27l-.81-2.21,4-1.54-.26-.7,.66-.27,.52,1.42-4.02,1.48,.71,1.93,.51,1.99Z"/><path class="cls-23" d="M88.2,34.71l-.68,.22,.24,.66,.18,.69,.35,1.37-.69,.18-.43-1.69c-.14-.56-.38-1.09-.57-1.64l2.02-.71,.5,1.38,.37,1.42,.69-.19-.37-1.44-.51-1.4,.67-.24c.2,.6,.46,1.18,.62,1.79l.47,1.83-2.08,.53-.36-1.4-.18-.7-.25-.68Z"/></g><g><path class="cls-23" d="M88.09,39.71l-.7,.14,.42,2.7-.71,.1-.25-1.66c-.08-.56-.16-1.11-.32-1.65l2.09-.47c.28,.9,.33,1.86,.5,2.78l.71-.11c-.17-.94-.23-1.91-.51-2.83l.7-.16c.17,.59,.27,1.19,.35,1.79l.28,1.81-2.12,.29-.42-2.75Z"/><path class="cls-23" d="M88.22,48.01h-.71l-.12-2.35c-.06-.78-.02-1.57-.18-2.34l4.26-.5-.11-.74,.71-.1,.22,1.5-4.26,.42,.21,4.1Z"/><polygon class="cls-23" points="90.22 45.13 89.51 45.18 89.65 48.01 88.93 48.01 88.76 44.53 90.89 44.35 91.04 47.27 91.76 47.26 91.61 44.29 92.32 44.23 92.51 48.01 90.36 48.01 90.22 45.13"/></g></g></g><circle id="Outer_Ring" class="cls-20" cx="48.01" cy="48.01" r="47.5"/><circle id="Inner_Ring" class="cls-21" cx="48.01" cy="48.01" r="36.26"/></g><g id="Mascot_-_Circle_Background_-_Clipped"><g><path class="cls-24" d="M79.75,48.01c0-17.53-14.21-31.74-31.74-31.74s-31.74,14.21-31.74,31.74c0,11.53,6.15,21.63,15.35,27.18,.17-.5,.35-1.04,.57-1.61,2.49-6.78,4.39-8.65,4.39-8.65l11.2,1.79,9.9-2.26s3.46,3.64,5.11,11.65c10.09-5.32,16.96-15.9,16.96-28.1Z"/><path class="cls-22" d="M62.78,76.1c-4.41,2.33-9.44,3.64-14.78,3.64-6,0-11.61-1.66-16.39-4.56,.17-.5,.35-1.04,.57-1.61,2.49-6.78,4.39-8.65,4.39-8.65l11.2,1.79,9.9-2.26s3.46,3.64,5.11,11.65Z"/></g><path class="cls-7" d="M49.72,19.24s-.7-.47-2.26-.39-4.76,2.03-6.08,4.68c-1.33,2.65-.62,4.05-2.49,5.3s-4.13,.39-6,1.01-3.1,2.96-3.18,3.82c0,0,.92-1.17,2.71-1.56s2.95,.22,4.57,.23c0,0-.51,2.26-2.85,2.81-2.1,.49-6.14-.21-7.33,5.67,0,0,1.33-2.09,3.59-2.4s10.76,4.05,18.09,1.87c7.33-2.18,9.9-1.28,9.9-6,0-2.96-1.87-2.65-1.95-4.29s.77-1.17,.62-3.04c-.16-2.03-1.33-2.03-1.4-3.2-.08-1.17,.25-1.75-1.07-3.23-1.33-1.48-3.31-2.05-4.85-1.29Z"/><path class="cls-22" d="M34.77,50.91c-.11,.5-.32,.97-.61,1.38-.29,.41-.67,.77-1.1,1.04-1.48,.94-2.81,1.17-2.81,1.17,0,0-.47,2.81-3.66,3.59s-6.7,1.09-9.28-1.64-.94-4.52-.94-4.52c0,0,1.64,.08,2.88-.16,1.25-.23,2.48-1.23,3.66-1.48,1.02-.22,2.42,.39,2.42,.39,0,0,.16-1.72,1.09-3.12s2.57-1.79,2.96-2.73,.16-2.73,1.01-3.98,2.73-3.12,4.05-3.43,3.27,.08,3.27,.08c0,0,2.06-2.3,5.6-2.67"/><path class="cls-11" d="M34.77,50.91c-.11,.5-.32,.97-.61,1.38-.29,.41-.67,.77-1.1,1.04-1.48,.94-2.81,1.17-2.81,1.17,0,0-.47,2.81-3.66,3.59s-6.7,1.09-9.28-1.64-.94-4.52-.94-4.52c0,0,1.64,.08,2.88-.16,1.25-.23,2.48-1.23,3.66-1.48,1.02-.22,2.42,.39,2.42,.39,0,0,.16-1.72,1.09-3.12s2.57-1.79,2.96-2.73,.16-2.73,1.01-3.98,2.73-3.12,4.05-3.43,3.27,.08,3.27,.08c0,0,2.06-2.3,5.6-2.67"/><path class="cls-16" d="M45.89,32.62c1.72,1.48,4.29,1.48,6.39,.08,.32-.22,1.06-2.97,1.64-6.63,.65-4.1-1.64-5.77-5.22-5.77s-4.42,3.1-4.34,5.28c.08,2.18,.94,6.53,1.53,7.04Z"/><path class="cls-16" d="M53.93,25.88s1.01-.89,1.17-.14c.16,.76-1.01,3.44-1.48,3.58-.47,.14-.39-.69-.39-.69l.7-2.75Z"/><path class="cls-16" d="M44.16,25.9s-.94-.96-1.16-.21c-.22,.75,.73,3.5,1.18,3.66,.46,.17,.44-.66,.44-.66l-.47-2.79Z"/><path class="cls-15" d="M49.57,25.55s.62-.55,1.25-.55c.17,0,.35,.03,.51,.09,.16,.07,.31,.17,.43,.3,0,0-.16,.62-.94,.7s-1.25-.55-1.25-.55Z"/><path class="cls-15" d="M48.08,25.55s-.62-.55-1.25-.55c-.17,0-.35,.03-.51,.09-.16,.07-.31,.17-.43,.3,0,0,.16,.62,.94,.7s1.25-.55,1.25-.55Z"/><path class="cls-22" d="M43.56,25.24s.99,2.63,.98,4.04l1.36-1.08s-.78-3.27-2.1-3.98"/><path class="cls-3" d="M43.56,25.24s.99,2.63,.98,4.04l1.36-1.08s-.78-3.27-2.1-3.98"/><path class="cls-22" d="M54.4,25.24s-1.04,2.56-1.02,3.97l-1.31-1.01s1.01-3.59,2.34-4.29"/><path class="cls-3" d="M54.4,25.24s-1.04,2.56-1.02,3.97l-1.31-1.01s1.01-3.59,2.34-4.29"/><path class="cls-22" d="M49.45,24.92s1.34-1.59,2.56-.72l-2.56,.72Z"/><path class="cls-8" d="M49.45,24.92s1.34-1.59,2.56-.72"/><path class="cls-22" d="M48.32,24.98s-1.36-1.53-2.85-.9l2.85,.9Z"/><path class="cls-8" d="M48.32,24.98s-1.36-1.53-2.85-.9"/><path class="cls-22" d="M43.95,22.14s1.25,.19,1.79,0,1.51-.78,3.59-.75c1.79,.02,2.65,.87,3.12,.94,.47,.06,1.56-.5,1.56-.5l-2.1-1.69-3.66-.44-3.66,1.19-.62,1.25Z"/><path class="cls-22" d="M34.52,43.41c-.86,5.15-.51,7.71,.27,9.12s1.64,2.2,1.95,3.92c.13,.71,.28,4.82,.28,4.82,0,0,3.74,3.82,10.52,4.13s9.12-3.98,9.2-4.76,.08-4.29,.23-4.68c.16-.39,1.48-1.25,2.49-2.42s2.26-4.29,2.26-4.29l.78,.08s.98,1.94,1.91,2.88,2.92,1.02,2.92,1.02c0,0,4.89,2.27,7.09-4.83,0,0-1.09-2.57-2.49-3.9s-3.74-1.48-3.74-1.48c-1.01-2.18-3.76-3.82-5.61-4.13-1.87-.31-4.13-.39-4.13-.39,0,0-.47-.47-1.33-1.17s-2.3-1.58-3.66-2.34c-1.4-.78-8.97-.39-10.91,.16"/><path class="cls-9" d="M34.52,43.41c-.86,5.15-.51,7.71,.27,9.12s1.64,2.2,1.95,3.92c.13,.71,.28,4.82,.28,4.82,0,0,3.74,3.82,10.52,4.13s9.12-3.98,9.2-4.76,.08-4.29,.23-4.68c.16-.39,1.48-1.25,2.49-2.42s2.26-4.29,2.26-4.29l.78,.08s.98,1.94,1.91,2.88,2.92,1.02,2.92,1.02c0,0,4.89,2.27,7.09-4.83,0,0-1.09-2.57-2.49-3.9s-3.74-1.48-3.74-1.48c-1.01-2.18-3.76-3.82-5.61-4.13-1.87-.31-4.13-.39-4.13-.39,0,0-.47-.47-1.33-1.17s-2.3-1.58-3.66-2.34c-1.4-.78-8.97-.39-10.91,.16"/><path class="cls-22" d="M73.33,48.18s3.21,.69,3.76,2.4-.16,5.38-3.27,7.02-5.46,3.82-6.39,4.76l-1.48,1.48s-.39,2.88-1.17,3.82-1.95,1.4-2.88,1.25-1.64-.23-1.64-.23c0,0-.55,.08-.94-.16s-.39-.7-.39-.7c0,0-.47-.39-.55-.78,0,0-.62-.08-.62-.7s.55-1.79,.78-2.1,.47-.31,.47-.7,.08-1.64,.78-1.87,2.57-.39,3.2-.86,2.81-3.12,3.2-4.29,1.17-3.27,1.17-3.27c0,0,.96-2.35,2.93-3.34"/><path class="cls-14" d="M73.33,48.18s3.21,.69,3.76,2.4-.16,5.38-3.27,7.02-5.46,3.82-6.39,4.76l-1.48,1.48s-.39,2.88-1.17,3.82-1.95,1.4-2.88,1.25-1.64-.23-1.64-.23c0,0-.55,.08-.94-.16s-.39-.7-.39-.7c0,0-.47-.39-.55-.78,0,0-.62-.08-.62-.7s.55-1.79,.78-2.1,.47-.31,.47-.7,.08-1.64,.78-1.87,2.57-.39,3.2-.86,2.81-3.12,3.2-4.29,1.17-3.27,1.17-3.27c0,0,.96-2.35,2.93-3.34"/><path class="cls-3" d="M40.18,37.76s5.01,1.02,7.57-2.15"/><path class="cls-3" d="M55.83,38.25s-5.11,.53-7.08-3.3"/><path class="cls-5" d="M35.69,64.92s-.47-1.01-.16-2.57c.25-1.24,1.01-2.26,1.01-2.26,0,0,5.54,3.43,10.84,3.43s9.74-3.43,9.74-3.43c0,0,.86,.86,1.25,2.34,.3,1.13,0,2.42,0,2.42,0,0-4.37,3.12-10.84,3.12-7.72,0-11.85-3.04-11.85-3.04Z"/><path class="cls-13" d="M50.61,62.48h-5.44c-1.02,0-1.84,.82-1.84,1.84v2.42c0,1.02,.83,1.84,1.84,1.84h5.44c1.02,0,1.84-.83,1.84-1.84v-2.42c0-1.02-.82-1.84-1.84-1.84Z"/><path class="cls-3" d="M44.33,22.3s.87,.04,1.42-.15,1.51-.78,3.59-.75c1.79,.02,3.12,.68,3.58,.74s.93,.46,.93,.46"/><path class="cls-3" d="M48.65,25.38s.58,.7,.3,1.6"/><path class="cls-3" d="M47.36,27.81s-.13-.72,.63-.94"/><path class="cls-3" d="M50.22,27.72s.26-.57-.45-.96"/><path class="cls-2" d="M57.74,49.09c-3.2-3.46-10.59-5.1-10.59-5.1,0,0-7.32,.74-10.49,3.6"/><path class="cls-8" d="M70.31,49.19s-.51-3.87-4.74-3.06"/><path class="cls-8" d="M65.23,45.5s-1.07-4.73-5.48-4.35"/><path class="cls-8" d="M65.54,45.5s1.29-2.77-1.19-4.03"/><path class="cls-22" d="M27.86,52.16s5.19,.05,4.45-6.5l-4.45,6.5Z"/><path class="cls-8" d="M27.86,52.16s5.19,.05,4.45-6.5"/><path class="cls-22" d="M32.06,44.6c0-.11-.99-3.76,1.81-5.19l-1.81,5.19Z"/><path class="cls-3" d="M32.06,44.6c0-.11-.99-3.76,1.81-5.19"/><path class="cls-22" d="M32.41,44.61c0-.09,0-2.11,1.58-2.87l-1.58,2.87Z"/><path class="cls-3" d="M32.41,44.61c0-.09,0-2.11,1.58-2.87"/><path class="cls-22" d="M26.19,51.29s1.59-.02,2.69,2l-2.69-2Z"/><path class="cls-3" d="M26.19,51.29s1.59-.02,2.69,2"/><path class="cls-22" d="M20.82,54.72s2.65,.65,4.98-.62l-4.98,.62Z"/><path class="cls-8" d="M20.82,54.72s2.65,.65,4.98-.62"/><path class="cls-22" d="M64.8,60.45s3-1.75,4.79-4.8c.74-1.26,.85-3.11,.85-3.11"/><path class="cls-8" d="M64.8,60.45s3-1.75,4.79-4.8c.74-1.26,.85-3.11,.85-3.11"/><path class="cls-12" d="M52.13,67.89s.83,5.18-.5,11.65"/><path class="cls-18" d="M54.54,76.64s.07,.93,.04,2.42"/><path class="cls-8" d="M42.65,47.06s-1.9,1.74-1.76,3.87c.19,2.88,1.38,2.95,1.64,4.4s-.4,3.02,2.38,4.85"/><path class="cls-8" d="M51.46,47.06s1.9,1.74,1.76,3.87c-.19,2.88-1.38,2.95-1.64,4.4s.4,3.02-2.38,4.85"/><path class="cls-3" d="M47.4,50.05c.37,2.54,0,3.54,0,3.54,0,0,.36,1.12,.02,3.53"/><path class="cls-3" d="M47.35,43.29s.91-1.67,.13-6.54"/><path class="cls-10" d="M44.81,30.23s-1.56,.94-1.95,3.12,1.74,3.5-.45,6.31c0,0,1.63-1.01,2.08-1.87,0,0-.23,3.35-2.57,4.13,0,0,6.31,.31,9.67-4.76,0,0,.47,.94-.23,2.03,0,0,4.52-2.96,2.26-8.97l-5.15-1.25-3.66,1.25Z"/><path class="cls-6" d="M48.33,28.58s1.45-1.01,2.46-.95c1.64,.1,1.97,2.05,4.54,1.97,0,0-2,1.53-4.21,.9-2.21-.62-2.77-.99-2.77-.99l-.03-.93Z"/><path class="cls-1" d="M48.55,28.59s-.56-1.16-2.26-.86c-1.37,.24-1.07,1.68-4.28,2.44,0,0,5.24,1.46,6.47-.74,0,0,.23-.13,.06-.84Z"/><path class="cls-19" d="M18.93,49.88s2.65-.16,3.12,.94,.23,1.48,.23,1.48c-.42,.4-.79,.85-1.12,1.33-.6,.86-.99,1.56-.99,1.56,0,0-1.01,.47-1.79-.16s.55-5.15,.55-5.15Z"/><path class="cls-17" d="M18.5,29.42s-2.69,5.57-3.71,21.24c-1.01,15.67,4.78,34.02,4.78,34.02,0,0-3.53-22.95,1.07-41.9,0,0,.55,1.09,3.59,4.37-.17-4.5-.09-9,.23-13.49,.55-7.17,3.12-12.24,3.12-12.24,0,0-2.27,3.53-3.82,8.34-1.64,5.07-2.1,8.11-2.1,8.11,0,0-2.3-4.25-3.15-8.45Z"/><path class="cls-19" d="M19.47,53.23s.94-.39,.94-1.25-2.26-1.95-3.66-2.49-2.57-.55-2.88,.16,0,1.17,0,1.17c0,0-.99,.25-1.38,1.19-.39,.94,.29,1.77,.29,1.77,0,0-.32,.44-.23,1.23,.12,1.08,.82,1.29,.82,1.29,0,0-.04,1.53,.58,1.92s4.91-.08,5.07-.55-.08-1.09-.08-1.09c0,0,.31-.16,.39-.7,.04-.33-.04-.66-.23-.94,0,0,1.01-.78,.39-1.72Z"/><path class="cls-22" d="M19.32,53.11s-1.72-1.16-3.64-1.76l3.64,1.76Z"/><path class="cls-4" d="M19.32,53.11s-1.72-1.16-3.64-1.76"/><path class="cls-22" d="M18.88,54.82s-2.62-1.1-4.62-1.11l4.62,1.11Z"/><path class="cls-4" d="M18.88,54.82s-2.62-1.1-4.62-1.11"/><path class="cls-22" d="M18.74,56.44s-1.6,.46-4.42-.13l4.42,.13Z"/><path class="cls-4" d="M18.74,56.44s-1.6,.46-4.42-.13"/></g></g></g></svg>