<svg width="569" height="169" viewBox="0 0 569 169" fill="none" xmlns="http://www.w3.org/2000/svg">
<path d="M370.06 0C370.06 0 348.973 9.63116 324.882 29.0941C300.79 48.5571 287.636 70.4279 287.636 70.4279C287.636 70.4279 295.026 70.9295 292.76 74.6917C290.444 78.4539 283.793 85.0753 283.793 85.0753C283.793 85.0753 296.258 93.1514 332.962 108.852C369.666 124.553 374.986 127.312 375.43 125.857C375.873 124.403 392.673 128.566 392.673 128.566C392.673 128.566 348.628 103.786 326.409 84.072C326.409 84.072 331.582 79.3066 344.835 74.3907C358.088 69.4748 365.084 68.1204 365.281 66.4149C365.478 64.7094 361.192 64.0573 361.192 64.0573L376.464 58.9909C376.464 58.9909 347.052 58.2886 315.866 65.9133C315.866 65.9133 330.301 41.735 345.672 29.5456C361.044 17.3562 367.646 14.0454 367.892 11.738C368.138 9.43052 364.492 8.07613 364.492 8.07613C364.492 8.07613 365.281 3.51136 370.06 0Z" fill="white"/>
<path d="M267.535 40.0287C267.535 40.0287 249.454 60.5451 231.176 90.4418C212.898 120.339 189.003 158.512 194.866 162.224C200.729 165.936 209.991 164.431 209.991 164.431C209.991 164.431 208.808 168.695 211.518 168.996C214.228 169.297 233.59 152.192 256.745 142.761C279.901 133.331 298.376 127.913 298.819 125.455C299.263 122.947 291.676 121.593 292.07 121.593C292.464 121.593 300.741 119.335 301.332 116.576C301.923 113.817 295.913 112.714 286.798 113.918C277.733 115.122 236.94 128.214 236.94 128.214C236.94 128.214 266.205 72.7345 282.561 50.011C298.918 27.2874 304.288 22.823 304.189 19.412C304.091 16.0511 290.395 16.653 290.395 16.653C290.395 16.653 288.572 12.8407 286.552 12.7905C284.532 12.7905 233.787 15.9508 198.561 23.4751C163.335 30.9995 173.533 31.3004 177.376 34.561C181.219 37.8215 175.405 44.6436 175.405 44.6436C175.405 44.6436 192.698 43.6404 192.501 47.3022C192.304 50.9641 186.934 55.1777 186.934 55.1777C186.934 55.1777 228.023 42.9883 267.535 40.0287Z" fill="white"/>
<path d="M385.283 3.06006C385.283 3.06006 391.54 34.6122 393.855 62.2014C396.171 89.7907 394.693 114.37 396.072 115.223C397.452 116.026 409.177 110.809 424.647 112.314C440.117 113.818 451.498 114.17 452.779 112.564C454.06 110.959 452.779 107.348 452.779 107.348C452.779 107.348 455.735 107.749 456.277 105.592C456.819 103.435 453.912 101.228 453.912 101.228C453.912 101.228 453.567 79.5074 452.04 53.2224C450.463 26.9373 442.235 3.96298 442.235 3.96298C442.235 3.96298 438.245 92.65 436.865 98.0173C436.865 98.0173 422.529 93.2018 411.542 94.3555C411.542 94.3555 404.842 58.4894 399.373 33.8597C393.855 9.17986 392.328 4.26395 391.096 4.51477C390.012 4.71542 389.126 9.38051 389.126 9.38051L385.283 3.06006Z" fill="white"/>
<path d="M569 43.8425C569 43.8425 527.862 20.8682 501.504 14.8989C475.146 8.92957 470.17 10.4344 472.19 11.839C474.21 13.2435 479.087 16.0025 479.087 16.0025C479.087 16.0025 461.302 15.852 462.928 18.0591C464.554 20.2662 469.875 37.2211 470.022 55.0789C470.17 72.9367 470.367 85.1261 471.402 85.5776C472.436 86.0291 481.502 85.1261 481.502 85.1261C481.502 85.1261 479.285 88.7378 481.502 89.089C483.719 89.4401 494.015 87.0323 505.1 87.5841C516.136 88.1359 521.211 89.4902 521.211 89.4902C521.211 89.4902 522.64 114.07 516.038 132.329C516.038 132.329 463.962 111.963 462.238 114.22C460.514 116.528 463.667 121.494 463.667 121.494L443.763 130.072C443.763 130.072 471.106 135.088 493.72 143.916C516.333 152.745 529.389 160.37 531.458 159.567C533.528 158.764 536.927 148.782 542.149 118.735C547.372 88.6877 543.972 73.9901 541.755 72.2344C536.779 68.3719 485.985 71.3817 485.985 71.3817C485.985 71.3817 488.005 50.163 485.936 37.4218C485.936 37.4218 487.956 29.5463 569 43.8425Z" fill="white"/>
<path d="M0 90.6383C0 90.6383 10.797 42.0804 33.587 11.0164L111.493 7.68115C111.493 7.68115 73.5422 43.8462 62.5513 63.4655L108.002 60.0321C108.002 60.0321 36.27 112.122 12.1547 165.159C12.1547 165.159 6.91782 121.506 31.5181 87.303L0 90.6383Z" fill="#FFD93F"/>
</svg>
